
Click To Enlarge 


-: Cover :-


    	http://desibbrg.org/images/38016464187488932993.jpg


-: Screens :-






    	http://desibbrg.org/images/90805590804302533891.jpg

    	http://desibbrg.org/images/06017666040768844961.jpg

    	http://desibbrg.org/images/99950773297672187271.jpg

    	http://desibbrg.org/images/10984923201070114631.jpg

    	http://desibbrg.org/images/64320894087331282824.jpg

    	http://desibbrg.org/images/04928468856638624966.jpg

    	http://desibbrg.org/images/37354447660163695845.jpg

    	http://desibbrg.org/images/87971682764701311818.jpg

    	http://desibbrg.org/images/89507626605125891341.jpg

    	http://desibbrg.org/images/18964975753431549974.jpg

    	http://desibbrg.org/images/87760567307399498027.jpg

    	http://desibbrg.org/images/15019679730163109991.jpg

    	http://desibbrg.org/images/53434463942837987803.jpg

    	http://desibbrg.org/images/51306677554361630206.jpg

    	http://desibbrg.org/images/18262410678983310008.jpg

    	http://desibbrg.org/images/51624742229456618171.jpg

    	http://desibbrg.org/images/09279781697294489126.jpg



-: Info :-


General

Format                           : AVI
Format/Info                      : Audio Video Interleave
File size                        : 1.37 GiB
Duration                         : 2h 37mn
Overall bit rate                 : 1 244 Kbps
Writing application              : VirtualDubMod 1.5.4.1 (build 2178/release)
Writing library                  : VirtualDubMod build 2178/release

Video
ID                               : 0
Format                           : MPEG-4 Visual
Format profile                   : Advanced Simple@L5
Format settings, BVOP            : Yes
Format settings, QPel            : No
Format settings, GMC             : No warppoints
Format settings, Matrix          : Custom
Codec ID                         : XVID
Codec ID/Hint                    : XviD
Duration                         : 2h 37mn
Bit rate                         : 788 Kbps
Width                            : 672 pixels
Height                           : 512 pixels
Display aspect ratio             : 4:3
Frame rate                       : 29.970 fps
Color space                      : YUV
Chroma subsampling               : 4:2:0
Bit depth                        : 8 bits
Scan type                        : Progressive
Bits/(Pixel*Frame)               : 0.076
Stream size                      : 887 MiB (63%)
Writing library                  : XviD 1.2.1 (UTC 2008-12-04)

Audio
ID                               : 1
Format                           : AC-3
Format/Info                      : Audio Coding 3
Mode extension                   : CM (complete main)
Codec ID                         : 2000
Duration                         : 2h 37mn
Bit rate mode                    : Constant
Bit rate                         : 448 Kbps
Channel(s)                       : 6 channels
Channel positions                : Front: L C R, Side: L R, LFE
Sampling rate                    : 48.0 KHz
Bit depth                        : 16 bits
Stream size                      : 505 MiB (36%)
Alignment                        : Aligned on interleaves
Interleave, duration             : 96 ms (2.88 video frames)
Interleave, preload duration     : 96 ms
Language                         : Hindi
Ripper - sunnyc_1994
 
http://www.imdb.com/title/tt0053999/


Directed by
S.U. Sunny	 	
 
Writing credits
(in alphabetical order)
Wajahat Mirza	 	written by

Cast (in credits order) complete, awaiting verification

	Dilip Kumar		

	Meena Kumari		
rest of cast listed alphabetically:
	Azim		
	Bina		(as Beena)

	Leela Chitnis		
	Jeevan		
	Raja Kapur		
	Nazir Kashmiri		
	Khursheed Khan		(as Khurshed Khan)
	Kumar		
	Kumkum		
	Rekha Mallick		
	Mukri		
	Nissar		(as Master Nisar)
	Qamar		
	M.Y. Shaikh		(as M.Y. Sheikh)
	Sood		
	Tun Tun		
	Uma		

Produced by
V.N. Sinha	.... 	producer (as Dr. V.N. Sinha)
 
Original Music by
Naushad	 	
 
Art Direction by
V. Jadhav	 	(as V. Jadhorao)
 
Set Decoration by
D.R. Jadhar	 	(settings)
 
Costume Design by
John D'Souza	 	
Vasant Mahajan	 	
 
Makeup Department
Beurtha Ezeikal	.... 	hair stylist (as Bertha)
S.N. Natekar	.... 	assistant makeup artist
B.V. Sawant	.... 	makeup artist
Gyan Singh	.... 	assistant makeup artist
Rehana Siraj	.... 	hair stylist
Salma Siraj	.... 	hair stylist
 
Production Management
A.K. Tiwari	.... 	production manager
 
Second Unit Director or Assistant Director
Hasan Akhtar	.... 	assistant director
Masood Beg	.... 	assistant director
J.P. Gidwani	.... 	assistant director
 
Art Department
S.G. Pawar	.... 	assistant settings
 
Special Effects by
Ansari	.... 	title designer
 
Music Department
Asha Bhosle	.... 	playback singer
Lata Mangeshkar	.... 	playback singer
Mohammad Rafi	.... 	playback singer: "Madhuban Mein Radhika Nache"
Mohammed Shafi	.... 	assistant musical director
 
Other crew
Hiralal B.	.... 	dances (as Hiralal)
Sitara Devi	.... 	dances
Irshad	.... 	production controller
G.R. Narveker	.... 	processing
Ved Puri	.... 	production controller
Satyanarayan	.... 	dances
Chiman Seth	.... 	dances 


After the passing of Maharaj Dhiraj Rana Chandrabhan of Kailash Nagar, the Senapati, Veer Singh, crowns Rajkumar Dhivendra Pratap Bahadur Chandrabhan as the next King. Veer's wife, who has brought up Dhivendra like her own son, Surinder, would like Dhivendra to get married to Rajkumari Chandramukhi of Rajgarh. The Maharaja of Rajgarh is pleased to hear of this, and asks his daughter to set forth to Kailash Nagar. On the way there, she is abducted by her very own Senapati and held captive until she gives her consent to marry him. Dhivendra rescues her, both fall in love, but are captured by Senapati's men. Dhivendra is gravelly injured but manages to escape and is looked after Rajgarh's Raj Nartaki, Rajlaxmi, who also falls in love with him. After Dhivendra recuperates, he finds out that Chandramukhi is being against her will at Senapati's castle, he sets forth to set her free, but is captured in the process. Held in chains, he is blinded by a vengeful Rajlaxmi, and Chandramukhi is ... 
